<svg id="visual" viewBox="0 0 960 540" width="960" height="540" xmlns="http://www.w3.org/2000/svg" xmlns:xlink="http://www.w3.org/1999/xlink" version="1.1"><rect x="0" y="0" width="960" height="540" fill="#01041a"></rect><path d="M0 461L20 462.8C40 464.7 80 468.3 120 460.3C160 452.3 200 432.7 240 421.7C280 410.7 320 408.3 360 415.2C400 422 440 438 480 443.2C520 448.3 560 442.7 600 434C640 425.3 680 413.7 720 421.3C760 429 800 456 840 454C880 452 920 421 940 405.5L960 390L960 541L940 541C920 541 880 541 840 541C800 541 760 541 720 541C680 541 640 541 600 541C560 541 520 541 480 541C440 541 400 541 360 541C320 541 280 541 240 541C200 541 160 541 120 541C80 541 40 541 20 541L0 541Z" fill="#FFF" stroke-linecap="round" stroke-linejoin="miter"></path></svg>