<svg id="visual" viewBox="0 0 960 540" width="960" height="540" xmlns="http://www.w3.org/2000/svg" xmlns:xlink="http://www.w3.org/1999/xlink" version="1.1"><rect x="0" y="0" width="960" height="540" fill="#01041a"></rect><path d="M0 414L26.7 405.7C53.3 397.3 106.7 380.7 160 366C213.3 351.3 266.7 338.7 320 348.2C373.3 357.7 426.7 389.3 480 406.3C533.3 423.3 586.7 425.7 640 415.2C693.3 404.7 746.7 381.3 800 377.5C853.3 373.7 906.7 389.3 933.3 397.2L960 405L960 541L933.3 541C906.7 541 853.3 541 800 541C746.7 541 693.3 541 640 541C586.7 541 533.3 541 480 541C426.7 541 373.3 541 320 541C266.7 541 213.3 541 160 541C106.7 541 53.3 541 26.7 541L0 541Z" fill="#FFF" stroke-linecap="round" stroke-linejoin="miter"></path></svg>